<svg width="123" height="89" viewBox="0 0 123 89" fill="none" xmlns="http://www.w3.org/2000/svg">
<path fill-rule="evenodd" clip-rule="evenodd" d="M51.2699 70.3556L50.7241 70.6668L61.2403 76.8316L61.3154 76.7883L51.2699 70.3556ZM42.3646 87.7295C40.4077 88.8593 37.9968 88.8593 36.0399 87.7295L3.16231 68.7476C1.20547 67.6178 2.01483e-06 65.5299 2.21237e-06 63.2703L1.69754e-05 25.3065C1.71729e-05 23.047 1.20548 20.959 3.16233 19.8292L36.04 0.847341C37.9968 -0.282442 40.4077 -0.282442 42.3646 0.847349L57.525 9.60024L47.0167 15.6672L40.3798 11.883C39.409 11.3295 38.218 11.3295 37.2471 11.883L11.2658 26.6969C10.279 27.2596 9.66981 28.3082 9.66981 29.4441L9.6698 59.0037C9.6698 60.1396 10.279 61.1883 11.2658 61.7509L37.2471 76.5648C38.218 77.1184 39.4089 77.1184 40.3798 76.5648L46.5438 73.0503L57.0857 79.2303L42.3646 87.7295Z" fill="#F8DA4F"/>
<path d="M86.1585 87.8347C84.2017 88.9645 81.7907 88.9645 79.8339 87.8347L46.9563 68.8528C44.9994 67.723 43.7939 65.635 43.7939 63.3755L43.794 25.4117C43.794 23.1521 44.9994 21.0642 46.9563 19.9344L79.8339 0.952471C81.7908 -0.177307 84.2017 -0.177306 86.1585 0.952482L119.036 19.9344C120.993 21.0642 122.198 23.1521 122.198 25.4117V39.6647H111.943V29.8125C111.943 28.6731 111.33 27.6218 110.339 27.0605L84.3572 12.3541C83.3907 11.807 82.2081 11.807 81.2417 12.3541L55.2603 27.0605C54.2687 27.6218 53.6557 28.6731 53.6557 29.8125L53.6557 59.1178C53.6557 60.2572 54.2687 61.3085 55.2603 61.8698L81.2416 76.5762C82.2081 77.1233 83.3907 77.1233 84.3572 76.5762L110.339 61.8698C111.33 61.3086 111.943 60.2572 111.943 59.1178V49.5625H122.198V63.3755C122.198 65.6351 120.993 67.723 119.036 68.8528L86.1585 87.8347Z" fill="#D07C3F"/>
<path d="M17.568 46.4563C16.3269 46.4563 15.3208 45.4653 15.3208 44.2427C15.3208 43.0202 16.3269 42.0291 17.568 42.0291C18.809 42.0291 19.8151 43.0202 19.8151 44.2427C19.8151 45.4653 18.809 46.4563 17.568 46.4563Z" fill="#D07C3F"/>
<path d="M28.0371 48.6699C25.592 48.6699 23.6099 46.6878 23.6099 44.2427C23.6099 41.7976 25.592 39.8155 28.0371 39.8155C30.4822 39.8155 32.4644 41.7976 32.4644 44.2427C32.4644 46.6878 30.4822 48.6699 28.0371 48.6699Z" fill="#D07C3F"/>
<path d="M42.9 50.8836C39.2324 50.8836 36.2591 47.9103 36.2591 44.2427C36.2591 40.5751 39.2324 37.6018 42.9 37.6018C46.5676 37.6018 49.5409 40.5751 49.5409 44.2427C49.5409 47.9103 46.5676 50.8836 42.9 50.8836Z" fill="#D07C3F"/>
<path d="M103.149 58.395C102.935 57.9936 102.611 57.662 102.213 57.4383C101.418 56.9861 100.442 56.9889 99.6489 57.4463L87.1563 64.6377C85.9199 65.3533 85.499 66.935 86.2164 68.1707C86.9333 69.4049 88.5166 69.8254 89.7519 69.1091L102.222 61.905C103.444 61.189 103.859 59.6209 103.149 58.395Z" fill="#D07C3F"/>
</svg>
