<svg width="285" height="40" viewBox="0 0 285 40" fill="none" xmlns="http://www.w3.org/2000/svg">
<path fill-rule="evenodd" clip-rule="evenodd" d="M82.682 3.64883C82.6114 3.47464 82.4423 3.36066 82.2543 3.36066H76.2856C76.098 3.36066 75.9291 3.47428 75.8583 3.64806L62.9863 35.2566C62.8627 35.5601 63.086 35.8921 63.4137 35.8921H69.0056C69.194 35.8921 69.3635 35.7776 69.4338 35.6028L73.6909 25.0123C73.7612 24.8375 73.9307 24.723 74.1191 24.723H84.3535C84.5419 24.723 84.7114 24.8375 84.7817 25.0123L89.0389 35.6028C89.1091 35.7776 89.2786 35.8921 89.467 35.8921H95.0603C95.3876 35.8921 95.6108 35.5608 95.4879 35.2574L82.682 3.64883ZM77.245 18.542C76.9223 18.542 76.6993 18.2192 76.8134 17.9173L78.8047 12.6516C78.9551 12.2539 79.5176 12.2539 79.6679 12.6516L81.6592 17.9173C81.7734 18.2192 81.5503 18.542 81.2276 18.542H77.245Z" fill="black"/>
<path d="M98.3339 3.36066C98.0791 3.36066 97.8725 3.56725 97.8725 3.8221V35.4307C97.8725 35.6855 98.0791 35.8921 98.3339 35.8921H103.891C104.145 35.8921 104.352 35.6855 104.352 35.4307V25.4964C104.352 25.2415 104.559 25.0349 104.813 25.0349H123.396C123.651 25.0349 123.858 24.8283 123.858 24.5735V19.0168C123.858 18.762 123.649 18.5554 123.394 18.5554C116.217 18.5554 111.992 18.5554 104.816 18.5554C104.561 18.5554 104.352 18.3488 104.352 18.0939V10.3017C104.352 10.0468 104.559 9.84023 104.813 9.84023H129.942C130.197 9.84023 130.404 9.63363 130.404 9.37879V3.8221C130.404 3.56725 130.197 3.36066 129.942 3.36066H98.3339Z" fill="black"/>
<path d="M165.286 3.8221C165.286 3.56725 165.079 3.36066 164.824 3.36066H133.216C132.961 3.36066 132.754 3.56725 132.754 3.8221V9.37879C132.754 9.63363 132.958 9.84023 133.213 9.84023C134.712 9.84023 139.688 9.84023 145.318 9.84023C145.573 9.84023 145.78 10.0468 145.78 10.3017V35.4307C145.78 35.6855 145.987 35.8921 146.242 35.8921H151.798C152.053 35.8921 152.26 35.6855 152.26 35.4307V10.3017C152.26 10.0468 152.467 9.84023 152.722 9.84023C158.352 9.84023 163.329 9.84023 164.827 9.84023C165.082 9.84023 165.286 9.63363 165.286 9.37879V3.8221Z" fill="black"/>
<path d="M200.893 13.0719V9.7778C200.893 3.2569 194.474 3.2569 194.474 3.2569L167.636 3.2569L167.636 35.9959H194.474C194.474 35.9959 200.893 35.9959 200.893 29.475V26.1809C200.893 19.66 194.474 19.66 194.474 19.66C194.474 19.5928 200.893 19.5928 200.893 13.0719ZM190.855 29.4077H174.26V22.8868H190.923C191.811 22.8868 192.699 23.223 193.245 23.828C193.86 24.433 194.201 25.2397 194.201 26.1137C194.201 27.996 192.699 29.4077 190.855 29.4077ZM194.201 13.0719C194.201 14.887 192.699 16.3659 190.855 16.3659H174.26L174.055 9.71057L190.923 9.7778C192.767 9.7778 194.201 11.2568 194.201 13.0719Z" fill="black"/>
<path d="M209.578 3.2569L203.244 3.2569L203.244 35.9959H209.578V3.2569Z" fill="black"/>
<path d="M248.892 18.4728C249.304 19.1867 249.304 20.0662 248.892 20.78L240.728 34.9213C240.316 35.6352 239.554 36.0749 238.73 36.0749H222.401C221.576 36.0749 220.815 35.6352 220.402 34.9213L217.193 29.3617L221.784 26.707L223.83 30.2835C224.036 30.6426 224.418 30.8642 224.831 30.8642H236.298C236.712 30.8642 237.094 30.6426 237.3 30.2835L243.042 20.2472C243.245 19.8923 243.245 19.4564 243.042 19.1014L241.027 15.5804L245.672 12.895L248.892 18.4728Z" fill="#F8DA4F"/>
<path d="M243.595 9.29838L240.728 4.33145C240.315 3.61761 239.554 3.17786 238.73 3.17786L222.401 3.17786C221.576 3.17786 220.815 3.61761 220.402 4.33145L212.238 18.4728C211.826 19.1866 211.826 20.0661 212.238 20.78L215.116 25.7651L219.721 23.1024L218.088 20.2472C217.885 19.8923 217.885 19.4563 218.088 19.1014L223.83 9.0651C224.036 8.70598 224.418 8.48441 224.831 8.48441L236.298 8.48441C236.712 8.48441 237.094 8.70598 237.3 9.0651L238.965 11.9757L243.595 9.29838Z" fill="#D07C3F"/>
<path d="M284.809 3.2569V9.7778H261.522C259.678 9.7778 258.176 11.2568 258.176 13.0719C258.176 14.887 259.678 16.3659 261.522 16.3659H274.838C280.37 16.3659 284.809 20.7356 284.809 26.1809C284.809 31.6262 280.37 35.9959 274.838 35.9959H251.552L251.552 29.475H274.838C276.682 29.475 278.185 27.996 278.185 26.1809C278.185 24.3658 276.682 22.8868 274.838 22.8868C271.492 22.8868 266.234 22.8868 261.522 22.8868C255.99 22.8868 251.552 18.5172 251.552 13.0719C251.552 7.62658 255.99 3.2569 261.522 3.2569L284.809 3.2569Z" fill="black"/>
<path fill-rule="evenodd" clip-rule="evenodd" d="M23.1255 31.7336L22.8792 31.8741L27.6225 34.6548L27.6566 34.6351L23.1255 31.7336ZM19.1084 39.5704C18.2258 40.0799 17.1383 40.0799 16.2557 39.5704L1.42625 31.0086C0.54362 30.499 -0.000103995 29.5572 -0.000103906 28.538L-0.000100502 11.4145C-0.000100413 10.3953 0.543628 9.45355 1.42626 8.94396L16.2557 0.382182C17.1383 -0.127408 18.2258 -0.127408 19.1084 0.382182L25.9463 4.33002L21.2065 7.06652L18.2132 5.35982C17.7753 5.11013 17.2381 5.11013 16.8002 5.35982L5.08132 12.0416C4.63624 12.2954 4.36146 12.7684 4.36146 13.2807L4.36145 26.6136C4.36145 27.1259 4.63623 27.5989 5.08131 27.8527L16.8002 34.5345C17.2381 34.7842 17.7753 34.7842 18.2132 34.5345L20.9936 32.9492L25.7486 35.7367L19.1084 39.5704Z" fill="#F8DA4F"/>
<path d="M38.8615 39.6178C37.9789 40.1274 36.8915 40.1274 36.0088 39.6178L21.1794 31.056C20.2967 30.5464 19.753 29.6047 19.753 28.5855L19.753 11.4619C19.753 10.4427 20.2968 9.50098 21.1794 8.99139L36.0088 0.429613C36.8915 -0.0799728 37.9789 -0.0799726 38.8615 0.429618L53.691 8.9914C54.5736 9.50099 55.1173 10.4427 55.1173 11.4619V17.8907H50.4917V13.4469C50.4917 12.933 50.2152 12.4588 49.7679 12.2056L38.049 5.57231C37.6131 5.32556 37.0797 5.32556 36.6438 5.57231L24.9249 12.2056C24.4777 12.4588 24.2012 12.933 24.2012 13.4469L24.2012 26.665C24.2012 27.179 24.4777 27.6532 24.9249 27.9063L36.6438 34.5397C37.0797 34.7864 37.6131 34.7864 38.049 34.5397L49.7679 27.9064C50.2152 27.6532 50.4917 27.179 50.4917 26.6651V22.3551H55.1173V28.5855C55.1173 29.6047 54.5736 30.5464 53.691 31.056L38.8615 39.6178Z" fill="#D07C3F"/>
<path d="M7.92233 20.9542C7.36255 20.9542 6.90875 20.5072 6.90875 19.9557C6.90875 19.4043 7.36255 18.9573 7.92233 18.9573C8.48212 18.9573 8.93591 19.4043 8.93591 19.9557C8.93591 20.5072 8.48212 20.9542 7.92233 20.9542Z" fill="#D07C3F"/>
<path d="M12.6444 21.9526C11.5416 21.9526 10.6475 21.0586 10.6475 19.9557C10.6475 18.8529 11.5416 17.9588 12.6444 17.9588C13.7473 17.9588 14.6414 18.8529 14.6414 19.9557C14.6414 21.0586 13.7473 21.9526 12.6444 21.9526Z" fill="#D07C3F"/>
<path d="M19.3483 22.9511C17.694 22.9511 16.353 21.61 16.353 19.9557C16.353 18.3015 17.694 16.9604 19.3483 16.9604C21.0026 16.9604 22.3437 18.3015 22.3437 19.9557C22.3437 21.61 21.0026 22.9511 19.3483 22.9511Z" fill="#D07C3F"/>
<path d="M46.8862 26.3391C46.7894 26.158 46.6432 26.0084 46.4641 25.9075C46.1053 25.7036 45.6651 25.7048 45.3073 25.9111L39.6726 29.1548C39.1149 29.4776 38.925 30.191 39.2486 30.7484C39.572 31.3051 40.2861 31.4947 40.8433 31.1716L46.4682 27.9223C47.0193 27.5993 47.2063 26.892 46.8862 26.3391Z" fill="#D07C3F"/>
</svg>
